ffmpeg version 7.1.1 Copyright (c) 2000-2025 the FFmpeg developers
  built with Apple clang version 17.0.0 (clang-1700.0.13.5)
  configuration: --prefix=/opt/homebrew/Cellar/ffmpeg/7.1.1-with-options --enable-shared --cc=clang --host-cflags= --host-ldflags= --enable-gpl --enable-libaom --enable-libdav1d --enable-libmp3lame --enable-libopus --enable-libsnappy --enable-libtheora --enable-libvorbis --enable-libvpx --enable-libx264 --enable-libx265 --enable-libfontconfig --enable-libfreetype --enable-frei0r --enable-libass --enable-demuxer=dash --enable-opencl --enable-audiotoolbox --enable-videotoolbox --enable-neon --disable-htmlpages --enable-libcaca --enable-libfdk-aac --enable-libgsm --enable-libmodplug --enable-librtmp --enable-libsoxr --enable-libssh --enable-libtwolame --enable-libvidstab --enable-nonfree
  libavutil      59. 39.100 / 59. 39.100
  libavcodec     61. 19.101 / 61. 19.101
  libavformat    61.  7.100 / 61.  7.100
  libavdevice    61.  3.100 / 61.  3.100
  libavfilter    10.  4.100 / 10.  4.100
  libswscale      8.  3.100 /  8.  3.100
  libswresample   5.  3.100 /  5.  3.100
  libpostproc    58.  3.100 / 58.  3.100
[hls @ 0x139706490] Skip ('#EXT-X-VERSION:3')
[hls @ 0x139706490] Skip ('#EXT-X-INDEPENDENT-SEGMENTS')
[hls @ 0x139706490] Can't support the subtitle(uri: master_caption.m3u8)
[hls @ 0x139706490] Opening 'https://tni-drct-msnbc-int-jg89w.fast.nbcuni.com/live/master_1.m3u8' for reading
[hls @ 0x139706490] Skip ('#EXT-X-VERSION:3')
[hls @ 0x139706490] Skip ('#EXT-X-ELE_RATING:TV_US,5,TV-14')
[hls @ 0x139706490] Skip ('#EXT-X-ELE_TITLE:')
[hls @ 0x139706490] Skip ('#EXT-X-PROGRAM-DATE-TIME:2025-07-21T22:37:33.260Z')
[hls @ 0x139706490] Skip ('#EXT-X-CUE-OUT-CONT:CAID=0x6D736E62635F4550303237343337343032313038,ElapsedTime=74.800,Duration=90.000,SCTE35=/DBCAAAAAAAAAP/wBQb+LPcCWQAsAipDVUVJAAAAAX//AAB7mKABFG1zbmJjX0VQMDI3NDM3NDAyMTA4NgEBAABO7nUa')
[hls @ 0x139706490] Skip ('#EXT-X-CUE-OUT-CONT:CAID=0x6D736E62635F4550303237343337343032313038,ElapsedTime=80.800,Duration=90.000,SCTE35=/DBCAAAAAAAAAP/wBQb+LPcCWQAsAipDVUVJAAAAAX//AAB7mKABFG1zbmJjX0VQMDI3NDM3NDAyMTA4NgEBAABO7nUa')
[hls @ 0x139706490] Skip ('#EXT-X-CUE-OUT-CONT:CAID=0x6D736E62635F4550303237343337343032313038,ElapsedTime=86.800,Duration=90.000,SCTE35=/DBCAAAAAAAAAP/wBQb+LPcCWQAsAipDVUVJAAAAAX//AAB7mKABFG1zbmJjX0VQMDI3NDM3NDAyMTA4NgEBAABO7nUa')
[hls @ 0x139706490] Skip ('#EXT-OATCLS-SCTE35:/DBAAAAAAAAAAAAABQb+LXKmsQAqAihDVUVJ/////3//AAFyyeABFG1zbmJjX0VQMDI3NDM3NDAyMTA4IwMDmdySLA==')
[hls @ 0x139706490] Skip ('#EXT-X-CUE-IN')
[hls @ 0x139706490] Skip ('#EXT-OATCLS-SCTE35:/DBCAAAAAAAAAP/wBQb+LPcCWQAsAipDVUVJAAAAAX//AAB7mKABFG1zbmJjX0VQMDI3NDM3NDAyMTA4NgEBAABO7nUa')
[hls @ 0x139706490] Skip ('#EXT-X-ASSET:CAID=0x6D736E62635F4550303237343337343032313038')
[hls @ 0x139706490] Skip ('#EXT-X-CUE-OUT:90.067')
[hls @ 0x139706490] Skip ('#EXT-OATCLS-SCTE35:/DA7AAAAAAAAAP/wBQb+LXKyaQAlAiNDVUVJAAAAAX+/ARRtc25iY19FUDAyNzQzNzQwMjEwODcBASuT8zs=')
[hls @ 0x139706490] Skip ('#EXT-X-CUE-IN')
[https @ 0x13b825a00] Opening 'https://tni-drct-msnbc-int-jg89w.fast.nbcuni.com/live/master_2.m3u8' for reading
[hls @ 0x139706490] Skip ('#EXT-X-VERSION:3')
[hls @ 0x139706490] Skip ('#EXT-X-ELE_RATING:TV_US,5,TV-14')
[hls @ 0x139706490] Skip ('#EXT-X-ELE_TITLE:')
[hls @ 0x139706490] Skip ('#EXT-X-PROGRAM-DATE-TIME:2025-07-21T22:37:33.260Z')
[hls @ 0x139706490] Skip ('#EXT-X-CUE-OUT-CONT:CAID=0x6D736E62635F4550303237343337343032313038,ElapsedTime=74.800,Duration=90.000,SCTE35=/DBCAAAAAAAAAP/wBQb+LPcCWQAsAipDVUVJAAAAAX//AAB7mKABFG1zbmJjX0VQMDI3NDM3NDAyMTA4NgEBAABO7nUa')
[hls @ 0x139706490] Skip ('#EXT-X-CUE-OUT-CONT:CAID=0x6D736E62635F4550303237343337343032313038,ElapsedTime=80.800,Duration=90.000,SCTE35=/DBCAAAAAAAAAP/wBQb+LPcCWQAsAipDVUVJAAAAAX//AAB7mKABFG1zbmJjX0VQMDI3NDM3NDAyMTA4NgEBAABO7nUa')
[hls @ 0x139706490] Skip ('#EXT-X-CUE-OUT-CONT:CAID=0x6D736E62635F4550303237343337343032313038,ElapsedTime=86.800,Duration=90.000,SCTE35=/DBCAAAAAAAAAP/wBQb+LPcCWQAsAipDVUVJAAAAAX//AAB7mKABFG1zbmJjX0VQMDI3NDM3NDAyMTA4NgEBAABO7nUa')
[hls @ 0x139706490] Skip ('#EXT-OATCLS-SCTE35:/DBAAAAAAAAAAAAABQb+LXKmsQAqAihDVUVJ/////3//AAFyyeABFG1zbmJjX0VQMDI3NDM3NDAyMTA4IwMDmdySLA==')
[hls @ 0x139706490] Skip ('#EXT-X-CUE-IN')
[hls @ 0x139706490] Skip ('#EXT-OATCLS-SCTE35:/DBCAAAAAAAAAP/wBQb+LPcCWQAsAipDVUVJAAAAAX//AAB7mKABFG1zbmJjX0VQMDI3NDM3NDAyMTA4NgEBAABO7nUa')
[hls @ 0x139706490] Skip ('#EXT-X-ASSET:CAID=0x6D736E62635F4550303237343337343032313038')
[hls @ 0x139706490] Skip ('#EXT-X-CUE-OUT:90.067')
[hls @ 0x139706490] Skip ('#EXT-OATCLS-SCTE35:/DA7AAAAAAAAAP/wBQb+LXKyaQAlAiNDVUVJAAAAAX+/ARRtc25iY19FUDAyNzQzNzQwMjEwODcBASuT8zs=')
[hls @ 0x139706490] Skip ('#EXT-X-CUE-IN')
[https @ 0x13b825a00] Opening 'https://tni-drct-msnbc-int-jg89w.fast.nbcuni.com/live/master_3.m3u8' for reading
[hls @ 0x139706490] Skip ('#EXT-X-VERSION:3')
[hls @ 0x139706490] Skip ('#EXT-X-ELE_RATING:TV_US,5,TV-14')
[hls @ 0x139706490] Skip ('#EXT-X-ELE_TITLE:')
[hls @ 0x139706490] Skip ('#EXT-X-PROGRAM-DATE-TIME:2025-07-21T22:37:33.260Z')
[hls @ 0x139706490] Skip ('#EXT-X-CUE-OUT-CONT:CAID=0x6D736E62635F4550303237343337343032313038,ElapsedTime=74.800,Duration=90.000,SCTE35=/DBCAAAAAAAAAP/wBQb+LPcCWQAsAipDVUVJAAAAAX//AAB7mKABFG1zbmJjX0VQMDI3NDM3NDAyMTA4NgEBAABO7nUa')
[hls @ 0x139706490] Skip ('#EXT-X-CUE-OUT-CONT:CAID=0x6D736E62635F4550303237343337343032313038,ElapsedTime=80.800,Duration=90.000,SCTE35=/DBCAAAAAAAAAP/wBQb+LPcCWQAsAipDVUVJAAAAAX//AAB7mKABFG1zbmJjX0VQMDI3NDM3NDAyMTA4NgEBAABO7nUa')
[hls @ 0x139706490] Skip ('#EXT-X-CUE-OUT-CONT:CAID=0x6D736E62635F4550303237343337343032313038,ElapsedTime=86.800,Duration=90.000,SCTE35=/DBCAAAAAAAAAP/wBQb+LPcCWQAsAipDVUVJAAAAAX//AAB7mKABFG1zbmJjX0VQMDI3NDM3NDAyMTA4NgEBAABO7nUa')
[hls @ 0x139706490] Skip ('#EXT-OATCLS-SCTE35:/DBAAAAAAAAAAAAABQb+LXKmsQAqAihDVUVJ/////3//AAFyyeABFG1zbmJjX0VQMDI3NDM3NDAyMTA4IwMDmdySLA==')
[hls @ 0x139706490] Skip ('#EXT-X-CUE-IN')
[hls @ 0x139706490] Skip ('#EXT-OATCLS-SCTE35:/DBCAAAAAAAAAP/wBQb+LPcCWQAsAipDVUVJAAAAAX//AAB7mKABFG1zbmJjX0VQMDI3NDM3NDAyMTA4NgEBAABO7nUa')
[hls @ 0x139706490] Skip ('#EXT-X-ASSET:CAID=0x6D736E62635F4550303237343337343032313038')
[hls @ 0x139706490] Skip ('#EXT-X-CUE-OUT:90.067')
[hls @ 0x139706490] Skip ('#EXT-OATCLS-SCTE35:/DA7AAAAAAAAAP/wBQb+LXKyaQAlAiNDVUVJAAAAAX+/ARRtc25iY19FUDAyNzQzNzQwMjEwODcBASuT8zs=')
[hls @ 0x139706490] Skip ('#EXT-X-CUE-IN')
[https @ 0x13b825a00] Opening 'https://tni-drct-msnbc-int-jg89w.fast.nbcuni.com/live/master_4.m3u8' for reading
[hls @ 0x139706490] Skip ('#EXT-X-VERSION:3')
[hls @ 0x139706490] Skip ('#EXT-X-ELE_RATING:TV_US,5,TV-14')
[hls @ 0x139706490] Skip ('#EXT-X-ELE_TITLE:')
[hls @ 0x139706490] Skip ('#EXT-X-PROGRAM-DATE-TIME:2025-07-21T22:37:39.260Z')
[hls @ 0x139706490] Skip ('#EXT-X-CUE-OUT-CONT:CAID=0x6D736E62635F4550303237343337343032313038,ElapsedTime=80.800,Duration=90.000,SCTE35=/DBCAAAAAAAAAP/wBQb+LPcCWQAsAipDVUVJAAAAAX//AAB7mKABFG1zbmJjX0VQMDI3NDM3NDAyMTA4NgEBAABO7nUa')
[hls @ 0x139706490] Skip ('#EXT-X-CUE-OUT-CONT:CAID=0x6D736E62635F4550303237343337343032313038,ElapsedTime=86.800,Duration=90.000,SCTE35=/DBCAAAAAAAAAP/wBQb+LPcCWQAsAipDVUVJAAAAAX//AAB7mKABFG1zbmJjX0VQMDI3NDM3NDAyMTA4NgEBAABO7nUa')
[hls @ 0x139706490] Skip ('#EXT-OATCLS-SCTE35:/DBAAAAAAAAAAAAABQb+LXKmsQAqAihDVUVJ/////3//AAFyyeABFG1zbmJjX0VQMDI3NDM3NDAyMTA4IwMDmdySLA==')
[hls @ 0x139706490] Skip ('#EXT-X-CUE-IN')
[hls @ 0x139706490] Skip ('#EXT-OATCLS-SCTE35:/DBCAAAAAAAAAP/wBQb+LPcCWQAsAipDVUVJAAAAAX//AAB7mKABFG1zbmJjX0VQMDI3NDM3NDAyMTA4NgEBAABO7nUa')
[hls @ 0x139706490] Skip ('#EXT-X-ASSET:CAID=0x6D736E62635F4550303237343337343032313038')
[hls @ 0x139706490] Skip ('#EXT-X-CUE-OUT:90.067')
[hls @ 0x139706490] Skip ('#EXT-OATCLS-SCTE35:/DA7AAAAAAAAAP/wBQb+LXKyaQAlAiNDVUVJAAAAAX+/ARRtc25iY19FUDAyNzQzNzQwMjEwODcBASuT8zs=')
[hls @ 0x139706490] Skip ('#EXT-X-CUE-IN')
[https @ 0x13b825a00] Opening 'https://tni-drct-msnbc-int-jg89w.fast.nbcuni.com/live/master_5.m3u8' for reading
[hls @ 0x139706490] Skip ('#EXT-X-VERSION:3')
[hls @ 0x139706490] Skip ('#EXT-X-ELE_RATING:TV_US,5,TV-14')
[hls @ 0x139706490] Skip ('#EXT-X-ELE_TITLE:')
[hls @ 0x139706490] Skip ('#EXT-X-PROGRAM-DATE-TIME:2025-07-21T22:37:39.260Z')
[hls @ 0x139706490] Skip ('#EXT-X-CUE-OUT-CONT:CAID=0x6D736E62635F4550303237343337343032313038,ElapsedTime=80.800,Duration=90.000,SCTE35=/DBCAAAAAAAAAP/wBQb+LPcCWQAsAipDVUVJAAAAAX//AAB7mKABFG1zbmJjX0VQMDI3NDM3NDAyMTA4NgEBAABO7nUa')
[hls @ 0x139706490] Skip ('#EXT-X-CUE-OUT-CONT:CAID=0x6D736E62635F4550303237343337343032313038,ElapsedTime=86.800,Duration=90.000,SCTE35=/DBCAAAAAAAAAP/wBQb+LPcCWQAsAipDVUVJAAAAAX//AAB7mKABFG1zbmJjX0VQMDI3NDM3NDAyMTA4NgEBAABO7nUa')
[hls @ 0x139706490] Skip ('#EXT-OATCLS-SCTE35:/DBAAAAAAAAAAAAABQb+LXKmsQAqAihDVUVJ/////3//AAFyyeABFG1zbmJjX0VQMDI3NDM3NDAyMTA4IwMDmdySLA==')
[hls @ 0x139706490] Skip ('#EXT-X-CUE-IN')
[hls @ 0x139706490] Skip ('#EXT-OATCLS-SCTE35:/DBCAAAAAAAAAP/wBQb+LPcCWQAsAipDVUVJAAAAAX//AAB7mKABFG1zbmJjX0VQMDI3NDM3NDAyMTA4NgEBAABO7nUa')
[hls @ 0x139706490] Skip ('#EXT-X-ASSET:CAID=0x6D736E62635F4550303237343337343032313038')
[hls @ 0x139706490] Skip ('#EXT-X-CUE-OUT:90.067')
[hls @ 0x139706490] Skip ('#EXT-OATCLS-SCTE35:/DA7AAAAAAAAAP/wBQb+LXKyaQAlAiNDVUVJAAAAAX+/ARRtc25iY19FUDAyNzQzNzQwMjEwODcBASuT8zs=')
[hls @ 0x139706490] Skip ('#EXT-X-CUE-IN')
[https @ 0x13b825a00] Opening 'https://tni-drct-msnbc-int-jg89w.fast.nbcuni.com/live/master_6.m3u8' for reading
[hls @ 0x139706490] Skip ('#EXT-X-VERSION:3')
[hls @ 0x139706490] Skip ('#EXT-X-ELE_RATING:TV_US,5,TV-14')
[hls @ 0x139706490] Skip ('#EXT-X-ELE_TITLE:')
[hls @ 0x139706490] Skip ('#EXT-X-PROGRAM-DATE-TIME:2025-07-21T22:37:39.260Z')
[hls @ 0x139706490] Skip ('#EXT-X-CUE-OUT-CONT:CAID=0x6D736E62635F4550303237343337343032313038,ElapsedTime=80.800,Duration=90.000,SCTE35=/DBCAAAAAAAAAP/wBQb+LPcCWQAsAipDVUVJAAAAAX//AAB7mKABFG1zbmJjX0VQMDI3NDM3NDAyMTA4NgEBAABO7nUa')
[hls @ 0x139706490] Skip ('#EXT-X-CUE-OUT-CONT:CAID=0x6D736E62635F4550303237343337343032313038,ElapsedTime=86.800,Duration=90.000,SCTE35=/DBCAAAAAAAAAP/wBQb+LPcCWQAsAipDVUVJAAAAAX//AAB7mKABFG1zbmJjX0VQMDI3NDM3NDAyMTA4NgEBAABO7nUa')
[hls @ 0x139706490] Skip ('#EXT-OATCLS-SCTE35:/DBAAAAAAAAAAAAABQb+LXKmsQAqAihDVUVJ/////3//AAFyyeABFG1zbmJjX0VQMDI3NDM3NDAyMTA4IwMDmdySLA==')
[hls @ 0x139706490] Skip ('#EXT-X-CUE-IN')
[hls @ 0x139706490] Skip ('#EXT-OATCLS-SCTE35:/DBCAAAAAAAAAP/wBQb+LPcCWQAsAipDVUVJAAAAAX//AAB7mKABFG1zbmJjX0VQMDI3NDM3NDAyMTA4NgEBAABO7nUa')
[hls @ 0x139706490] Skip ('#EXT-X-ASSET:CAID=0x6D736E62635F4550303237343337343032313038')
[hls @ 0x139706490] Skip ('#EXT-X-CUE-OUT:90.067')
[hls @ 0x139706490] Skip ('#EXT-OATCLS-SCTE35:/DA7AAAAAAAAAP/wBQb+LXKyaQAlAiNDVUVJAAAAAX+/ARRtc25iY19FUDAyNzQzNzQwMjEwODcBASuT8zs=')
[hls @ 0x139706490] Skip ('#EXT-X-CUE-IN')
[hls @ 0x139706490] Opening 'https://tni-drct-msnbc-int-jg89w.fast.nbcuni.com/live/master_1/00142/master_1_02371.ts' for reading
[hls @ 0x139706490] Opening 'https://tni-drct-msnbc-int-jg89w.fast.nbcuni.com/live/master_1/00142/master_1_02372.ts' for reading
[hls @ 0x139706490] Opening 'https://tni-drct-msnbc-int-jg89w.fast.nbcuni.com/live/master_2/00142/master_2_02371.ts' for reading
[hls @ 0x139706490] Opening 'https://tni-drct-msnbc-int-jg89w.fast.nbcuni.com/live/master_2/00142/master_2_02372.ts' for reading
[hls @ 0x139706490] Opening 'https://tni-drct-msnbc-int-jg89w.fast.nbcuni.com/live/master_3/00142/master_3_02371.ts' for reading
[hls @ 0x139706490] Opening 'https://tni-drct-msnbc-int-jg89w.fast.nbcuni.com/live/master_3/00142/master_3_02372.ts' for reading
[hls @ 0x139706490] Opening 'https://tni-drct-msnbc-int-jg89w.fast.nbcuni.com/live/master_4/00142/master_4_02371.ts' for reading
[hls @ 0x139706490] Opening 'https://tni-drct-msnbc-int-jg89w.fast.nbcuni.com/live/master_4/00142/master_4_02372.ts' for reading
[hls @ 0x139706490] Opening 'https://tni-drct-msnbc-int-jg89w.fast.nbcuni.com/live/master_5/00142/master_5_02371.ts' for reading
[hls @ 0x139706490] Opening 'https://tni-drct-msnbc-int-jg89w.fast.nbcuni.com/live/master_5/00142/master_5_02372.ts' for reading
[hls @ 0x139706490] Opening 'https://tni-drct-msnbc-int-jg89w.fast.nbcuni.com/live/master_6/00142/master_6_02371.ts' for reading
[hls @ 0x139706490] Opening 'https://tni-drct-msnbc-int-jg89w.fast.nbcuni.com/live/master_6/00142/master_6_02372.ts' for reading
Input #0, hls, from 'https://tni-drct-msnbc-int-jg89w.fast.nbcuni.com/live/master.m3u8':
  Duration: N/A, start: 8552.861067, bitrate: N/A
  Program 0 
    Metadata:
      variant_bitrate : 1249600
  Stream #0:0: Video: h264 (High) ([27][0][0][0] / 0x001B), yuv420p(tv, bt709), 768x432 [SAR 1:1 DAR 16:9], 30 fps, 30 tbr, 90k tbn
      Metadata:
        variant_bitrate : 1249600
  Stream #0:1(eng): Audio: aac (LC) ([15][0][0][0] / 0x000F), 48000 Hz, stereo, fltp
      Metadata:
        variant_bitrate : 1249600
  Stream #0:2: Data: scte_35
      Metadata:
        variant_bitrate : 1249600
  Program 1 
    Metadata:
      variant_bitrate : 963600
  Stream #0:3: Video: h264 (High) ([27][0][0][0] / 0x001B), yuv420p(tv, bt709), 640x360 [SAR 1:1 DAR 16:9], 30 fps, 30 tbr, 90k tbn
      Metadata:
        variant_bitrate : 963600
  Stream #0:4(eng): Audio: aac (LC) ([15][0][0][0] / 0x000F), 48000 Hz, stereo, fltp
      Metadata:
        variant_bitrate : 963600
  Stream #0:5: Data: scte_35
      Metadata:
        variant_bitrate : 963600
  Program 2 
    Metadata:
      variant_bitrate : 1707200
  Stream #0:6: Video: h264 (High) ([27][0][0][0] / 0x001B), yuv420p(tv, bt709), 1280x720 [SAR 1:1 DAR 16:9], 30 fps, 30 tbr, 90k tbn
      Metadata:
        variant_bitrate : 1707200
  Stream #0:7(eng): Audio: aac (LC) ([15][0][0][0] / 0x000F), 48000 Hz, stereo, fltp
      Metadata:
        variant_bitrate : 1707200
  Stream #0:8: Data: scte_35
      Metadata:
        variant_bitrate : 1707200
  Program 3 
    Metadata:
      variant_bitrate : 2851200
  Stream #0:9: Video: h264 (High) ([27][0][0][0] / 0x001B), yuv420p(tv, bt709), 1280x720 [SAR 1:1 DAR 16:9], 30 fps, 30 tbr, 90k tbn
      Metadata:
        variant_bitrate : 2851200
  Stream #0:10(eng): Audio: aac (LC) ([15][0][0][0] / 0x000F), 48000 Hz, stereo, fltp
      Metadata:
        variant_bitrate : 2851200
  Stream #0:11: Data: scte_35
      Metadata:
        variant_bitrate : 2851200
  Program 4 
    Metadata:
      variant_bitrate : 5253600
  Stream #0:12: Video: h264 (High) ([27][0][0][0] / 0x001B), yuv420p(tv, bt709), 1920x1080 [SAR 1:1 DAR 16:9], 30 fps, 30 tbr, 90k tbn
      Metadata:
        variant_bitrate : 5253600
  Stream #0:13(eng): Audio: aac (LC) ([15][0][0][0] / 0x000F), 48000 Hz, stereo, fltp
      Metadata:
        variant_bitrate : 5253600
  Stream #0:14: Data: scte_35
      Metadata:
        variant_bitrate : 5253600
  Program 5 
    Metadata:
      variant_bitrate : 534600
  Stream #0:15: Video: h264 (High) ([27][0][0][0] / 0x001B), yuv420p(tv, bt709), 426x240 [SAR 1:1 DAR 71:40], 30 fps, 30 tbr, 90k tbn
      Metadata:
        variant_bitrate : 534600
  Stream #0:16(eng): Audio: aac (LC) ([15][0][0][0] / 0x000F), 48000 Hz, stereo, fltp
      Metadata:
        variant_bitrate : 534600
  Stream #0:17: Data: scte_35
      Metadata:
        variant_bitrate : 534600
Stream mapping:
  Stream #0:1 -> #0:0 (aac (native) -> pcm_s16le (native))
Press [q] to stop, [?] for help
Output #0, wav, to '/Users/rblaney-x/Projects/CDN-Benchmark-Suite/cdn-benchmark-cli/test-audio/msnbc_hls_30s.wav':
  Metadata:
    ISFT            : Lavf61.7.100
  Stream #0:0(eng): Audio: pcm_s16le ([1][0][0][0] / 0x0001), 44100 Hz, stereo, s16, 1411 kb/s
      Metadata:
        variant_bitrate : 1249600
        encoder         : Lavc61.19.101 pcm_s16le
[hls @ 0x139706490] No longer receiving playlist 1 ('https://tni-drct-msnbc-int-jg89w.fast.nbcuni.com/live/master_2.m3u8')
[hls @ 0x139706490] No longer receiving playlist 2 ('https://tni-drct-msnbc-int-jg89w.fast.nbcuni.com/live/master_3.m3u8')
[hls @ 0x139706490] No longer receiving playlist 3 ('https://tni-drct-msnbc-int-jg89w.fast.nbcuni.com/live/master_4.m3u8')
[hls @ 0x139706490] No longer receiving playlist 4 ('https://tni-drct-msnbc-int-jg89w.fast.nbcuni.com/live/master_5.m3u8')
[hls @ 0x139706490] No longer receiving playlist 5 ('https://tni-drct-msnbc-int-jg89w.fast.nbcuni.com/live/master_6.m3u8')
size=    2048KiB time=00:00:11.98 bitrate=1399.4kbits/s speed=23.7x    size=    2048KiB time=00:00:11.98 bitrate=1399.4kbits/s speed=11.9x    size=    2048KiB time=00:00:11.98 bitrate=1399.4kbits/s speed=7.93x    size=    2048KiB time=00:00:11.98 bitrate=1399.4kbits/s speed=5.94x    size=    2048KiB time=00:00:11.98 bitrate=1399.4kbits/s speed=4.75x    size=    2048KiB time=00:00:11.98 bitrate=1399.4kbits/s speed=3.96x    [https @ 0x13b825a00] Opening 'https://tni-drct-msnbc-int-jg89w.fast.nbcuni.com/live/master_1.m3u8' for reading
[hls @ 0x139706490] Skip ('#EXT-X-VERSION:3')
[hls @ 0x139706490] Skip ('#EXT-X-ELE_RATING:TV_US,5,TV-14')
[hls @ 0x139706490] Skip ('#EXT-X-ELE_TITLE:')
[hls @ 0x139706490] Skip ('#EXT-X-PROGRAM-DATE-TIME:2025-07-21T22:37:39.260Z')
[hls @ 0x139706490] Skip ('#EXT-X-CUE-OUT-CONT:CAID=0x6D736E62635F4550303237343337343032313038,ElapsedTime=80.800,Duration=90.000,SCTE35=/DBCAAAAAAAAAP/wBQb+LPcCWQAsAipDVUVJAAAAAX//AAB7mKABFG1zbmJjX0VQMDI3NDM3NDAyMTA4NgEBAABO7nUa')
[hls @ 0x139706490] Skip ('#EXT-X-CUE-OUT-CONT:CAID=0x6D736E62635F4550303237343337343032313038,ElapsedTime=86.800,Duration=90.000,SCTE35=/DBCAAAAAAAAAP/wBQb+LPcCWQAsAipDVUVJAAAAAX//AAB7mKABFG1zbmJjX0VQMDI3NDM3NDAyMTA4NgEBAABO7nUa')
[hls @ 0x139706490] Skip ('#EXT-OATCLS-SCTE35:/DBAAAAAAAAAAAAABQb+LXKmsQAqAihDVUVJ/////3//AAFyyeABFG1zbmJjX0VQMDI3NDM3NDAyMTA4IwMDmdySLA==')
[hls @ 0x139706490] Skip ('#EXT-X-CUE-IN')
[hls @ 0x139706490] Skip ('#EXT-OATCLS-SCTE35:/DBCAAAAAAAAAP/wBQb+LPcCWQAsAipDVUVJAAAAAX//AAB7mKABFG1zbmJjX0VQMDI3NDM3NDAyMTA4NgEBAABO7nUa')
[hls @ 0x139706490] Skip ('#EXT-X-ASSET:CAID=0x6D736E62635F4550303237343337343032313038')
[hls @ 0x139706490] Skip ('#EXT-X-CUE-OUT:90.067')
[hls @ 0x139706490] Skip ('#EXT-OATCLS-SCTE35:/DA7AAAAAAAAAP/wBQb+LXKyaQAlAiNDVUVJAAAAAX+/ARRtc25iY19FUDAyNzQzNzQwMjEwODcBASuT8zs=')
[hls @ 0x139706490] Skip ('#EXT-X-CUE-IN')
[https @ 0x13c022a00] Opening 'https://tni-drct-msnbc-int-jg89w.fast.nbcuni.com/live/master_1/00142/master_1_02373.ts' for reading
size=    2304KiB time=00:00:13.43 bitrate=1404.4kbits/s speed=3.81x    size=    3072KiB time=00:00:18.00 bitrate=1397.7kbits/s speed=4.47x    size=    3072KiB time=00:00:18.00 bitrate=1397.7kbits/s speed=3.97x    size=    3072KiB time=00:00:18.00 bitrate=1397.7kbits/s speed=3.58x    size=    3072KiB time=00:00:18.00 bitrate=1397.7kbits/s speed=3.25x    size=    3072KiB time=00:00:18.00 bitrate=1397.7kbits/s speed=2.98x    size=    3072KiB time=00:00:18.00 bitrate=1397.7kbits/s speed=2.75x    size=    3072KiB time=00:00:18.00 bitrate=1397.7kbits/s speed=2.55x    size=    3072KiB time=00:00:18.00 bitrate=1397.7kbits/s speed=2.38x    size=    3072KiB time=00:00:18.00 bitrate=1397.7kbits/s speed=2.24x    size=    3072KiB time=00:00:18.00 bitrate=1397.7kbits/s speed= 2.1x    size=    3072KiB time=00:00:18.00 bitrate=1397.7kbits/s speed=1.99x    [https @ 0x13b825a00] Opening 'https://tni-drct-msnbc-int-jg89w.fast.nbcuni.com/live/master_1.m3u8' for reading
[hls @ 0x139706490] Skip ('#EXT-X-VERSION:3')
[hls @ 0x139706490] Skip ('#EXT-X-ELE_RATING:TV_US,5,TV-14')
[hls @ 0x139706490] Skip ('#EXT-X-ELE_TITLE:')
[hls @ 0x139706490] Skip ('#EXT-X-PROGRAM-DATE-TIME:2025-07-21T22:37:45.260Z')
[hls @ 0x139706490] Skip ('#EXT-X-CUE-OUT-CONT:CAID=0x6D736E62635F4550303237343337343032313038,ElapsedTime=86.800,Duration=90.000,SCTE35=/DBCAAAAAAAAAP/wBQb+LPcCWQAsAipDVUVJAAAAAX//AAB7mKABFG1zbmJjX0VQMDI3NDM3NDAyMTA4NgEBAABO7nUa')
[hls @ 0x139706490] Skip ('#EXT-OATCLS-SCTE35:/DBAAAAAAAAAAAAABQb+LXKmsQAqAihDVUVJ/////3//AAFyyeABFG1zbmJjX0VQMDI3NDM3NDAyMTA4IwMDmdySLA==')
[hls @ 0x139706490] Skip ('#EXT-X-CUE-IN')
[hls @ 0x139706490] Skip ('#EXT-OATCLS-SCTE35:/DBCAAAAAAAAAP/wBQb+LPcCWQAsAipDVUVJAAAAAX//AAB7mKABFG1zbmJjX0VQMDI3NDM3NDAyMTA4NgEBAABO7nUa')
[hls @ 0x139706490] Skip ('#EXT-X-ASSET:CAID=0x6D736E62635F4550303237343337343032313038')
[hls @ 0x139706490] Skip ('#EXT-X-CUE-OUT:90.067')
[hls @ 0x139706490] Skip ('#EXT-OATCLS-SCTE35:/DA7AAAAAAAAAP/wBQb+LXKyaQAlAiNDVUVJAAAAAX+/ARRtc25iY19FUDAyNzQzNzQwMjEwODcBASuT8zs=')
[hls @ 0x139706490] Skip ('#EXT-X-CUE-IN')
[https @ 0x13c022a00] Opening 'https://tni-drct-msnbc-int-jg89w.fast.nbcuni.com/live/master_1/00142/master_1_02374.ts' for reading
size=    3072KiB time=00:00:18.00 bitrate=1397.7kbits/s speed=1.88x    size=    4096KiB time=00:00:23.99 bitrate=1398.1kbits/s speed=2.38x    size=    4096KiB time=00:00:23.99 bitrate=1398.1kbits/s speed=2.27x    size=    4096KiB time=00:00:23.99 bitrate=1398.1kbits/s speed=2.17x    size=    4096KiB time=00:00:23.99 bitrate=1398.1kbits/s speed=2.07x    size=    4096KiB time=00:00:23.99 bitrate=1398.1kbits/s speed=1.98x    size=    4096KiB time=00:00:23.99 bitrate=1398.1kbits/s speed=1.91x    size=    4096KiB time=00:00:23.99 bitrate=1398.1kbits/s speed=1.83x    size=    4096KiB time=00:00:23.99 bitrate=1398.1kbits/s speed=1.76x    size=    4096KiB time=00:00:23.99 bitrate=1398.1kbits/s speed= 1.7x    size=    4096KiB time=00:00:23.99 bitrate=1398.1kbits/s speed=1.64x    size=    4096KiB time=00:00:23.99 bitrate=1398.1kbits/s speed=1.59x    [https @ 0x13b825a00] Opening 'https://tni-drct-msnbc-int-jg89w.fast.nbcuni.com/live/master_1.m3u8' for reading
[hls @ 0x139706490] Skip ('#EXT-X-VERSION:3')
[hls @ 0x139706490] Skip ('#EXT-X-ELE_RATING:TV_US,5,TV-14')
[hls @ 0x139706490] Skip ('#EXT-X-ELE_TITLE:')
[hls @ 0x139706490] Skip ('#EXT-X-PROGRAM-DATE-TIME:2025-07-21T22:37:48.527Z')
[hls @ 0x139706490] Skip ('#EXT-OATCLS-SCTE35:/DA7AAAAAAAAAP/wBQb+LXKyaQAlAiNDVUVJAAAAAX+/ARRtc25iY19FUDAyNzQzNzQwMjEwODcBASuT8zs=')
[hls @ 0x139706490] Skip ('#EXT-X-CUE-IN')
[https @ 0x13c022a00] Opening 'https://tni-drct-msnbc-int-jg89w.fast.nbcuni.com/live/master_1/00142/master_1_02375.ts' for reading
[https @ 0x13c012800] Opening 'https://tni-drct-msnbc-int-jg89w.fast.nbcuni.com/live/master_1/00142/master_1_02376.ts' for reading
size=    4096KiB time=00:00:23.99 bitrate=1398.1kbits/s speed=1.54x    [out#0/wav @ 0x6000035a8180] video:0KiB audio:5168KiB subtitle:0KiB other streams:0KiB global headers:0KiB muxing overhead: 0.001474%
size=    5168KiB time=00:00:30.00 bitrate=1411.2kbits/s speed= 1.9x    
